# xmcd CD database file
#
# Track frame offsets:
#	150
#	15827
#	46028
#	67723
#	93501
#	121564
#	142003
#	169678
#	193938
#	219664
#
# Disc length: 3284 seconds
#
# Revision: 0
# Processed by: cddbd v1.5.2PL0 Copyright (c) Steve Scherf et al.
# Submitted via: CDex 1.70beta2
#
DISCID=7b0cd20a
DTITLE=John Bostock - Seeing Sky
DYEAR=2007
DGENRE=Jazz
TTITLE0=Point Of Departure
TTITLE1=Swan Song
TTITLE2=Multiplicity
TTITLE3=Ballad
TTITLE4=Seeing Sky
TTITLE5=Sky Is Falling
TTITLE6=The Eel's Story
TTITLE7=Falling
TTITLE8=Rainyday Impressions
TTITLE9=Here's That Rainy Day
EXTD=YEAR: 2007
EXTT0=
EXTT1=
EXTT2=
EXTT3=
EXTT4=
EXTT5=
EXTT6=
EXTT7=
EXTT8=
EXTT9=
PLAYORDER=
